<svg width="62" height="45" viewBox="0 0 62 45" fill="none" xmlns="http://www.w3.org/2000/svg">
<g id="image 1 (Traced)" filter="url(#filter0_d_23_1418)">
<path d="M5.07167 20.1378C5.54269 19.8088 12.8621 15.2003 21.3369 9.89658L36.7458 0.2536L46.3848 0.224876C51.6865 0.208922 56.3078 0.305043 56.6548 0.438253C57.2171 0.654022 57.2857 2.6446 57.2857 18.7914V36.9024L47.2152 36.7959L37.1446 36.6894V33.0409C37.1446 30.06 37.2786 29.2448 37.8773 28.5843C38.2801 28.1396 42.2812 25.5811 46.7685 22.8985C52.5719 19.4295 54.8923 17.8374 54.8054 17.3843C54.6985 16.8283 53.5694 16.7342 45.8755 16.6404L37.0681 16.5336L20.7542 26.6966L4.44032 36.8597L4.32785 28.7981C4.21817 20.9407 4.23691 20.7209 5.07167 20.1378Z" fill="white"/>
</g>
<defs>
<filter id="filter0_d_23_1418" x="0.280396" y="0.223145" width="61.0052" height="44.6792" filterUnits="userSpaceOnUse" color-interpolation-filters="sRGB">
<feFlood flood-opacity="0" result="BackgroundImageFix"/>
<feColorMatrix in="SourceAlpha" type="matrix" values="0 0 0 0 0 0 0 0 0 0 0 0 0 0 0 0 0 0 127 0" result="hardAlpha"/>
<feOffset dy="4"/>
<feGaussianBlur stdDeviation="2"/>
<feComposite in2="hardAlpha" operator="out"/>
<feColorMatrix type="matrix" values="0 0 0 0 0 0 0 0 0 0 0 0 0 0 0 0 0 0 0.25 0"/>
<feBlend mode="normal" in2="BackgroundImageFix" result="effect1_dropShadow_23_1418"/>
<feBlend mode="normal" in="SourceGraphic" in2="effect1_dropShadow_23_1418" result="shape"/>
</filter>
</defs>
</svg>
